<svg focusable="false" aria-hidden="true" xmlns="http://www.w3.org/2000/svg" viewBox="0 0 32 32"><path fill="#FFF" d="m25.793 14.325-.166-.344-.277-.214c-.363-.284-2.2.02-2.695-.43-.352-.324-.404-.905-.51-1.69-.197-1.527-.322-1.606-.56-2.122-.866-1.836-3.214-3.217-4.825-3.408h-4.367c-3.436 0-6.244 2.814-6.242 6.248v7.29c0 3.428 2.81 6.238 6.248 6.238h7.174c3.436 0 6.225-2.81 6.244-6.237l.04-5.048-.06-.277zM12.47 11.22h3.464c.66 0 1.195.534 1.195 1.188 0 .653-.54 1.195-1.2 1.195h-3.46c-.66 0-1.194-.542-1.194-1.195 0-.654.535-1.19 1.195-1.19zm7.038 9.526H12.47c-.66 0-1.194-.54-1.194-1.188 0-.654.535-1.19 1.195-1.19h7.04c.655 0 1.19.536 1.19 1.19 0 .646-.535 1.188-1.19 1.188z"></path></svg>