<svg focusable="false" aria-hidden="true" xmlns="http://www.w3.org/2000/svg" viewBox="0 0 32 32"><path fill-rule="evenodd" clip-rule="evenodd" fill="#FFF" d="M16.21 4.41C9.973 4.41 4.917 9.465 4.917 15.7c0 2.134.592 4.13 1.62 5.832L4.5 27.59l6.25-2.002a11.241 11.241 0 0 0 5.46 1.404c6.234 0 11.29-5.055 11.29-11.29 0-6.237-5.056-11.292-11.29-11.292zm0 20.69c-1.91 0-3.69-.57-5.173-1.553l-3.61 1.156 1.173-3.49a9.345 9.345 0 0 1-1.79-5.512c0-5.18 4.217-9.4 9.4-9.4 5.183 0 9.397 4.22 9.397 9.4 0 5.188-4.214 9.4-9.398 9.4zm5.293-6.832c-.284-.155-1.673-.906-1.934-1.012-.265-.106-.455-.16-.658.12s-.78.91-.954 1.096c-.176.186-.345.203-.628.048-.282-.154-1.2-.494-2.264-1.517-.83-.795-1.373-1.76-1.53-2.055-.158-.295 0-.445.15-.584.134-.124.3-.326.45-.488.15-.163.203-.28.306-.47.104-.19.06-.36-.005-.506-.066-.147-.59-1.587-.81-2.173-.218-.586-.46-.498-.63-.505-.168-.007-.358-.038-.55-.045-.19-.007-.51.054-.78.332-.277.274-1.05.943-1.1 2.362-.055 1.418.926 2.826 1.064 3.023.137.2 1.874 3.272 4.76 4.537 2.888 1.264 2.9.878 3.43.85.53-.027 1.734-.633 2-1.297.266-.664.287-1.24.22-1.363-.07-.123-.26-.203-.54-.357z"></path></svg>